<?xml version="1.0" ?><svg height="24" id="svg8" version="1.1" viewBox="0 0 24 24" width="24" xmlns="http://www.w3.org/2000/svg" xmlns:cc="http://creativecommons.org/ns#" xmlns:dc="http://purl.org/dc/elements/1.1/" xmlns:rdf="http://www.w3.org/1999/02/22-rdf-syntax-ns#" xmlns:svg="http://www.w3.org/2000/svg"><defs id="defs2"><rect height="7.0346723" id="rect2504" width="7.9207187" x="-1.1008456" y="289.81766"/></defs><g id="g2298" style="display:inline;stroke-width:0.264566;stroke-miterlimit:4;stroke-dasharray:none" transform="matrix(3.7798386,0,0,3.7797182,-1.0935118e-4,-1098.5762)"><path d="m -38.494141,92.869141 v 0.501953 8.835936 h 5.033203 v -1.24805 l 0.02344,0.008 c 1.313584,0.43686 3.184965,0.82062 5.041016,1.48437 l 0.140625,0.0508 0.140625,-0.0371 c 0.583746,-0.13573 2.149294,-0.62253 4.023437,-1.22461 1.874142,-0.60207 4.01385,-1.310593 5.603516,-1.859371 0.762161,-0.263597 1.172642,-1.112289 0.892578,-1.86914 v -0.0078 c -0.294279,-0.774237 -1.148011,-1.115695 -1.875,-0.892578 -0.604176,0.185358 -3.437968,1.067428 -5.300781,1.617188 0.01854,-0.533054 0.159137,-1.115811 -0.273438,-1.455078 l -0.0293,-0.02148 -0.02148,-0.01563 c -2.09377,-1.247345 -2.27499,-1.402182 -5.21875,-2.966797 l -0.140625,-0.06641 -0.148438,0.01367 c -1.01062,0.108124 -2.725935,0.388759 -2.857422,0.410156 v -1.257812 z m 1.003907,1.003906 h 3.033203 v 7.330073 h -3.033203 z m 6.835937,0.855469 c 2.695727,1.435612 2.999024,1.654625 4.990235,2.841796 0.31495,0.251087 0.399141,0.559603 0.207031,0.835938 -0.104099,0.149941 -0.204438,0.203003 -0.355469,0.228516 -0.151031,0.02548 -0.358414,0.0032 -0.597656,-0.103516 -0.901786,-0.416449 -1.384158,-0.683368 -2.376953,-1.240234 l -0.435547,-0.244141 -0.494141,0.871094 0.443359,0.24414 c 0.995404,0.558303 1.525127,0.849669 2.451172,1.277344 v 0.0078 c 0.378631,0.16884 0.780658,0.242115 1.173828,0.175781 0.161948,-0.02733 0.272061,-0.18576 0.419922,-0.265625 l 0.01563,0.04492 0.478516,-0.140625 c 1.865266,-0.54617 4.936227,-1.500493 5.558594,-1.691407 0.233923,-0.07178 0.548539,0.04164 0.642578,0.289063 0.09285,0.250935 -0.02291,0.4875 -0.279297,0.576172 -1.578852,0.545035 -3.714289,1.251532 -5.582031,1.851568 -1.819125,0.58438 -3.359567,1.0548 -3.845703,1.17383 -1.86773,-0.64841 -3.725438,-1.0591 -4.886719,-1.44532 l -0.333985,-0.111328 V 95.14061 l 0.08203,-0.01367 c 0,0 1.713166,-0.279603 2.724609,-0.398437 z" id="rect2210" style="color:#000000;font-style:normal;font-variant:normal;font-weight:normal;font-stretch:normal;font-size:medium;line-height:normal;font-family:sans-serif;font-variant-ligatures:normal;font-variant-position:normal;font-variant-caps:normal;font-variant-numeric:normal;font-variant-alternates:normal;font-variant-east-asian:normal;font-feature-settings:normal;font-variation-settings:normal;text-indent:0;text-align:start;text-decoration:none;text-decoration-line:none;text-decoration-style:solid;text-decoration-color:#000000;letter-spacing:normal;word-spacing:normal;text-transform:none;writing-mode:lr-tb;direction:ltr;text-orientation:mixed;dominant-baseline:auto;baseline-shift:baseline;text-anchor:start;white-space:normal;shape-padding:0;shape-margin:0;inline-size:0;clip-rule:nonzero;display:inline;overflow:visible;visibility:visible;opacity:1;isolation:auto;mix-blend-mode:normal;color-interpolation:sRGB;color-interpolation-filters:linearRGB;solid-color:#000000;solid-opacity:1;vector-effect:none;fill:#000000;fill-opacity:1;fill-rule:nonzero;stroke:none;stroke-width:1;stroke-linecap:square;stroke-linejoin:miter;stroke-miterlimit:4;stroke-dasharray:none;stroke-dashoffset:0;stroke-opacity:1;paint-order:fill markers stroke;color-rendering:auto;image-rendering:auto;shape-rendering:auto;text-rendering:auto;enable-background:accumulate;stop-color:#000000;stop-opacity:1" transform="matrix(0.26456156,0,0,0.26456999,10.582702,269.4844)"/><path d="m 4.265625,291.04688 c -0.8990103,0 -1.6308594,0.73184 -1.6308594,1.63085 0,0.89902 0.7318491,1.63086 1.6308594,1.63086 0.8990103,0 1.6289063,-0.73184 1.6289062,-1.63086 0,-0.89901 -0.7298959,-1.63085 -1.6289062,-1.63085 z m 0,0.26367 c 0.7560281,0 1.3652344,0.61116 1.3652344,1.36718 0,0.75603 -0.6092063,1.36524 -1.3652344,1.36524 -0.7560281,0 -1.3671875,-0.60921 -1.3671875,-1.36524 0,-0.75602 0.6111594,-1.36718 1.3671875,-1.36718 z" id="ellipse2216" style="color:#000000;font-style:normal;font-variant:normal;font-weight:normal;font-stretch:normal;font-size:medium;line-height:normal;font-family:sans-serif;font-variant-ligatures:normal;font-variant-position:normal;font-variant-caps:normal;font-variant-numeric:normal;font-variant-alternates:normal;font-variant-east-asian:normal;font-feature-settings:normal;font-variation-settings:normal;text-indent:0;text-align:start;text-decoration:none;text-decoration-line:none;text-decoration-style:solid;text-decoration-color:#000000;letter-spacing:normal;word-spacing:normal;text-transform:none;writing-mode:lr-tb;direction:ltr;text-orientation:mixed;dominant-baseline:auto;baseline-shift:baseline;text-anchor:start;white-space:normal;shape-padding:0;shape-margin:0;inline-size:0;clip-rule:nonzero;display:inline;overflow:visible;visibility:visible;opacity:1;isolation:auto;mix-blend-mode:normal;color-interpolation:sRGB;color-interpolation-filters:linearRGB;solid-color:#000000;solid-opacity:1;vector-effect:none;fill:#000000;fill-opacity:1;fill-rule:nonzero;stroke:none;stroke-linecap:butt;stroke-linejoin:miter;stroke-miterlimit:4;stroke-dasharray:none;stroke-dashoffset:0;stroke-opacity:1;paint-order:fill markers stroke;color-rendering:auto;image-rendering:auto;shape-rendering:auto;text-rendering:auto;enable-background:accumulate;stop-color:#000000;stop-opacity:1"/><path d="m 209.24805,203.54102 c -0.21762,0 -0.39649,0.18082 -0.39649,0.39843 0,0.21762 0.17887,0.39649 0.39649,0.39649 0.21761,0 0.39843,-0.17887 0.39843,-0.39649 0,-0.21761 -0.18082,-0.39843 -0.39843,-0.39843 z m 0,0.26562 c 0.0746,0 0.13281,0.0582 0.13281,0.13281 0,0.0746 -0.0582,0.13086 -0.13281,0.13086 -0.0746,0 -0.13086,-0.0562 -0.13086,-0.13086 0,-0.0746 0.0562,-0.13281 0.13086,-0.13281 z" id="path2248" style="color:#000000;font-style:normal;font-variant:normal;font-weight:normal;font-stretch:normal;font-size:medium;line-height:normal;font-family:sans-serif;font-variant-ligatures:normal;font-variant-position:normal;font-variant-caps:normal;font-variant-numeric:normal;font-variant-alternates:normal;font-variant-east-asian:normal;font-feature-settings:normal;font-variation-settings:normal;text-indent:0;text-align:start;text-decoration:none;text-decoration-line:none;text-decoration-style:solid;text-decoration-color:#000000;letter-spacing:normal;word-spacing:normal;text-transform:none;writing-mode:lr-tb;direction:ltr;text-orientation:mixed;dominant-baseline:auto;baseline-shift:baseline;text-anchor:start;white-space:normal;shape-padding:0;shape-margin:0;inline-size:0;clip-rule:nonzero;display:inline;overflow:visible;visibility:visible;opacity:1;isolation:auto;mix-blend-mode:normal;color-interpolation:sRGB;color-interpolation-filters:linearRGB;solid-color:#000000;solid-opacity:1;vector-effect:none;fill:#000000;fill-opacity:1;fill-rule:nonzero;stroke:none;stroke-linecap:butt;stroke-linejoin:miter;stroke-miterlimit:4;stroke-dasharray:none;stroke-dashoffset:0;stroke-opacity:1;paint-order:fill markers stroke;color-rendering:auto;image-rendering:auto;shape-rendering:auto;text-rendering:auto;enable-background:accumulate;stop-color:#000000;stop-opacity:1" transform="rotate(45)"/><path d="m 210.69141,203.54102 c -0.21762,0 -0.39649,0.18082 -0.39649,0.39843 0,0.21762 0.17887,0.39649 0.39649,0.39649 0.21761,0 0.39648,-0.17887 0.39648,-0.39649 0,-0.21761 -0.17887,-0.39843 -0.39648,-0.39843 z m 0,0.26562 c 0.0746,0 0.13086,0.0582 0.13086,0.13281 0,0.0746 -0.0562,0.13086 -0.13086,0.13086 -0.0746,0 -0.13282,-0.0562 -0.13282,-0.13086 0,-0.0746 0.0582,-0.13281 0.13282,-0.13281 z" id="circle2250" style="color:#000000;font-style:normal;font-variant:normal;font-weight:normal;font-stretch:normal;font-size:medium;line-height:normal;font-family:sans-serif;font-variant-ligatures:normal;font-variant-position:normal;font-variant-caps:normal;font-variant-numeric:normal;font-variant-alternates:normal;font-variant-east-asian:normal;font-feature-settings:normal;font-variation-settings:normal;text-indent:0;text-align:start;text-decoration:none;text-decoration-line:none;text-decoration-style:solid;text-decoration-color:#000000;letter-spacing:normal;word-spacing:normal;text-transform:none;writing-mode:lr-tb;direction:ltr;text-orientation:mixed;dominant-baseline:auto;baseline-shift:baseline;text-anchor:start;white-space:normal;shape-padding:0;shape-margin:0;inline-size:0;clip-rule:nonzero;display:inline;overflow:visible;visibility:visible;opacity:1;isolation:auto;mix-blend-mode:normal;color-interpolation:sRGB;color-interpolation-filters:linearRGB;solid-color:#000000;solid-opacity:1;vector-effect:none;fill:#000000;fill-opacity:1;fill-rule:nonzero;stroke:none;stroke-linecap:butt;stroke-linejoin:miter;stroke-miterlimit:4;stroke-dasharray:none;stroke-dashoffset:0;stroke-opacity:1;paint-order:fill markers stroke;color-rendering:auto;image-rendering:auto;shape-rendering:auto;text-rendering:auto;enable-background:accumulate;stop-color:#000000;stop-opacity:1" transform="rotate(45)"/><path d="m 4.7324219,292.02344 -0.09375,0.0937 -0.9804688,0.98047 -0.09375,0.0937 0.1875,0.18554 0.09375,-0.0937 0.9804688,-0.98047 0.09375,-0.0937 z" id="path2252" style="color:#000000;font-style:normal;font-variant:normal;font-weight:normal;font-stretch:normal;font-size:medium;line-height:normal;font-family:sans-serif;font-variant-ligatures:normal;font-variant-position:normal;font-variant-caps:normal;font-variant-numeric:normal;font-variant-alternates:normal;font-variant-east-asian:normal;font-feature-settings:normal;font-variation-settings:normal;text-indent:0;text-align:start;text-decoration:none;text-decoration-line:none;text-decoration-style:solid;text-decoration-color:#000000;letter-spacing:normal;word-spacing:normal;text-transform:none;writing-mode:lr-tb;direction:ltr;text-orientation:mixed;dominant-baseline:auto;baseline-shift:baseline;text-anchor:start;white-space:normal;shape-padding:0;shape-margin:0;inline-size:0;clip-rule:nonzero;display:inline;overflow:visible;visibility:visible;opacity:1;isolation:auto;mix-blend-mode:normal;color-interpolation:sRGB;color-interpolation-filters:linearRGB;solid-color:#000000;solid-opacity:1;vector-effect:none;fill:#000000;fill-opacity:1;fill-rule:nonzero;stroke:none;stroke-linecap:square;stroke-linejoin:miter;stroke-miterlimit:4;stroke-dasharray:none;stroke-dashoffset:0;stroke-opacity:1;color-rendering:auto;image-rendering:auto;shape-rendering:auto;text-rendering:auto;enable-background:accumulate;stop-color:#000000;stop-opacity:1"/></g></svg>