<?xml version="1.0" ?><svg data-name="Layer 1" id="Layer_1" viewBox="0 0 512 512" xmlns="http://www.w3.org/2000/svg"><rect height="44.08" width="357.68" x="77.16" y="29.17"/><rect height="44.08" width="357.68" x="77.16" y="438.75"/><path d="M106.58,418H212.91a76.06,76.06,0,1,1,84.26,0H405.42c-8.06-40.41-33.65-128.94-107-162,73.34-33.09,98.93-121.62,107-162H106.58c8.06,40.41,33.65,128.94,107,162C140.23,289.09,114.64,377.62,106.58,418Zm81.23-250.74a24.12,24.12,0,1,1,24.12-24.12A24.12,24.12,0,0,1,187.81,167.29Zm75.25,1A34.11,34.11,0,1,1,229,202.42,34.12,34.12,0,0,1,263.06,168.31Z"/><path d="M254.85,420.52a7.36,7.36,0,0,0,4.76,1.76,7.88,7.88,0,0,0,4.7-1.61,6.81,6.81,0,0,0,2.74-5.73v-4.41c8-1.15,14.13-4,18.24-8.6,4.69-5.14,7.26-10.82,7.68-16.81a35.19,35.19,0,0,0-.55-9.93,27.55,27.55,0,0,0-4.11-10.4,29.53,29.53,0,0,0-9-8.46,38.59,38.59,0,0,0-12.27-4.83V314.23a12.94,12.94,0,0,1,2.35,1.27,24.66,24.66,0,0,1,5.26,4.75,17.11,17.11,0,0,1,3,5.38,30.16,30.16,0,0,1,1.31,6.28c.5,4.45,3.66,6.17,6.75,5.79s5.37-2.65,6.18-7c-.22-8.68-3-15.78-8.37-21A32.15,32.15,0,0,0,267.05,301v-5.5a7.19,7.19,0,0,0-2.6-5.6,7.35,7.35,0,0,0-9.82.23,7.21,7.21,0,0,0-2.19,5.37v4.7a44.87,44.87,0,0,0-11,2.59,33.48,33.48,0,0,0-11.61,7.09,30.34,30.34,0,0,0-7.18,10.59,28.32,28.32,0,0,0-1.79,13,30.44,30.44,0,0,0,10.46,20.28c5.56,4.65,12.86,7.55,21.14,8.51l0,35.78c-6.29-.68-11.22-2.36-14.71-5A19.7,19.7,0,0,1,230,381.94c-.42-3.31-3.07-5.52-6.62-5.62a6.48,6.48,0,0,0-5.17,2,5.62,5.62,0,0,0-1.05,5.07,29.65,29.65,0,0,0,13.54,20.39,48.79,48.79,0,0,0,21.77,6.94v4.22A6.87,6.87,0,0,0,254.85,420.52Zm-16.29-78.06a11.92,11.92,0,0,1-3-4.38,23.08,23.08,0,0,1-1.2-5.3,17.84,17.84,0,0,1,5.19-13.87c3.05-3.17,7.39-5.2,12.93-6v36.45a29.15,29.15,0,0,1-7.08-2.29A27.53,27.53,0,0,1,238.56,342.46Zm41.58,42.28a11,11,0,0,1-.73,3.35,13.58,13.58,0,0,1-2.26,4.16,17,17,0,0,1-5.07,3.9,17.23,17.23,0,0,1-5,1.65V364.71q6.15,2,9.22,5.45c2.75,3.21,4,7.94,3.87,14.49Z"/></svg>