<?xml version="1.0" ?><svg data-name="Layer 1" id="Layer_1" viewBox="0 0 512 512" xmlns="http://www.w3.org/2000/svg"><path d="M240.8,273a12.48,12.48,0,0,0,5-10.42v-5.72c12.56-2,22.24-6.77,28.86-14.08,7.72-8.5,12-17.93,12.67-27.86a58.63,58.63,0,0,0-.88-16.36,46.55,46.55,0,0,0-6.83-17.26,49.07,49.07,0,0,0-14.88-14,61.4,61.4,0,0,0-18.94-7.66v-56c.45.26.9.53,1.32.82a38.06,38.06,0,0,1,8.1,7.33,25.48,25.48,0,0,1,4.48,8.08,44.86,44.86,0,0,1,2,9.74c.78,7,5.93,11.28,12.66,10.69,5.62-.68,9.76-4.82,11.08-11.07a8.14,8.14,0,0,0,.17-1.84c-.36-14.36-5-26.08-13.9-34.8a52.79,52.79,0,0,0-25.93-14V71.11A13.18,13.18,0,0,0,241,60.85c-5.26-4.13-11.82-4.53-17.83.55a13.08,13.08,0,0,0-4,9.71v6.14a74.11,74.11,0,0,0-16.67,4A54.91,54.91,0,0,0,183.44,93a50,50,0,0,0-11.87,17.52,47.09,47.09,0,0,0-3,21.67c1.58,13.62,7.37,24.87,17.33,33.53,8.66,7.23,19.86,11.87,33.33,13.83l0,54.15c-8.94-1.18-16-3.7-21-7.51-6.38-4.83-10.3-10.58-11.81-16.78-.78-6.11-5.63-10.18-12-10.36a11.48,11.48,0,0,0-9.64,3.72,10.52,10.52,0,0,0-2,9.47c2.71,14.59,10.25,25.92,22.42,33.7,9.69,6.09,21.15,9.87,34.13,11.24v5.33a12.77,12.77,0,0,0,4.46,10.23,13.56,13.56,0,0,0,8.58,3.11A14.26,14.26,0,0,0,240.8,273ZM195.18,138.82a34.76,34.76,0,0,1-1.82-8.11,27.09,27.09,0,0,1,7.84-21c4.31-4.48,10.35-7.45,18-8.89v54.56A42.14,42.14,0,0,1,199.6,145.2,17.75,17.75,0,0,1,195.18,138.82Zm68.45,75.32a17,17,0,0,1-1.11,4.85,20.16,20.16,0,0,1-3.31,6.14,25.44,25.44,0,0,1-7.69,5.89,22.83,22.83,0,0,1-5.73,2.1V184.26c5.26,1.91,9.28,4.44,12,7.54,4.16,4.82,6.06,12.07,5.84,22.17Z"/><path d="M415.76,466.07H241.28V424.18c92.41,38,138.6-8.08,157.43-44.68C426.09,326.29,444.39,306,444.39,306c-138.81-16-186.7,43.67-203.11,82.92v-69c76.56-5.35,137.25-69.19,137.25-147.09,0-81.4-66.22-147.61-147.62-147.61S83.28,91.43,83.28,172.83c0,77.9,60.71,141.74,137.27,147.09v59.83c-15.84-23.65-53.38-56.49-135.76-37,0,0,32.66,39.81,46.26,57.94,17.79,23.7,53.08,37.46,89.5,18.45v46.95H78a10.36,10.36,0,1,0,0,20.71H415.76a10.36,10.36,0,1,0,0-20.71ZM104,172.83a126.9,126.9,0,1,1,126.9,126.9A127,127,0,0,1,104,172.83Z"/></svg>